<svg version="1.1" id="logo-veiss-desktop" xmlns="http://www.w3.org/2000/svg" xmlns:xlink="http://www.w3.org/1999/xlink" x="0px" y="0px" viewBox="0 0 164.211 52.439" enable-background="new 0 0 164.211 52.439" preserveAspectRatio="none">
<g>
	<g>
		<path fill="#D1145A" d="M148.605,46.27c0-2.756,0.953-5.067,2.858-6.938c0.655-0.641,1.364-1.162,2.12-1.584
			c-0.753-4.713-3.712-7.572-8.895-8.56c-3.944-0.723-6.35-1.311-7.217-1.768c-0.865-0.458-1.298-0.999-1.298-1.624v-0.146
			c0-2.021,1.538-3.03,4.618-3.03c0.961,0,1.863,0.17,2.705,0.505c0.842,0.336,1.77,1.01,2.779,2.021l6.494-5.844
			c-1.252-1.636-3.392-2.96-6.422-3.97c-2.646-0.866-5.123-1.273-7.435-1.228c-2.31,0.048-4.449,0.576-6.422,1.584
			c-4.474,2.255-6.711,5.64-6.711,10.151c0,4.702,2.188,7.989,6.565,9.86c1.49,0.625,3.318,1.15,5.484,1.584
			c1.828,0.336,2.959,0.552,3.393,0.646c1.348,0.479,2.092,1.272,2.236,2.376v0.288c0,1.055-0.627,1.872-1.877,2.446
			c-0.915,0.433-1.996,0.648-3.246,0.648h-0.217c-2.936,0-5.701-1.202-8.299-3.607l-5.412,7c1.635,1.395,3.799,2.587,6.494,3.57
			c2.693,0.987,5.172,1.504,7.434,1.553c4.301,0.108,7.854-0.902,10.663-3.029C148.738,48.27,148.605,47.299,148.605,46.27z"/>
		<g>
			<path fill="#D1145A" d="M152.594,46.295c0-1.635,0.564-3.006,1.695-4.113c1.131-1.106,2.513-1.66,4.148-1.66
				c1.588,0,2.946,0.566,4.078,1.695c1.129,1.131,1.694,2.49,1.694,4.078c0,1.637-0.553,3.02-1.659,4.147
				c-1.107,1.131-2.478,1.697-4.113,1.697c-1.637,0-3.019-0.566-4.148-1.697C153.158,49.314,152.594,47.932,152.594,46.295z"/>
		</g>
	</g>
	<g>
		<path class="cambio-color-2" fill="#4B4A4C" d="M25.649,51.236H14.258L0,13.803h10.024l10.121,25.83h0.145l10.238-25.83h9.452L25.649,51.236z"/>
		<path class="cambio-color-2" fill="#4B4A4C" d="M63.896,40.245c-1.671,1.916-3.515,2.927-6.257,2.927c-4.304,0-7.944-3.383-9.556-7.752h28.603
			c0,0,0.151-1.119,0.151-2.11c0-11.056-8.143-20.059-19.397-20.059c-10.79,0-19.263,9.07-19.263,19.727
			c0,10.725,8.738,19.463,19.461,19.463c8.08,0,14.455-5.112,17.708-12.194L63.896,40.245L63.896,40.245z M57.694,22.229
			c4.011,0,7.553,2.338,8.422,6.352H49.272C50.14,24.567,53.684,22.229,57.694,22.229z"/>
		<path class="cambio-color-2" fill="#4B4A4C" d="M85.842,15.553c-1.756,0-3.34-0.384-4.753-1.15v37.043h9.525V14.376
			C89.205,15.16,87.615,15.553,85.842,15.553z"/>
		<path class="cambio-color-2" fill="#4B4A4C" d="M80.102,5.644c0-1.597,0.552-2.938,1.657-4.02C82.863,0.541,84.217,0,85.816,0
			c1.553,0,2.881,0.554,3.985,1.659c1.104,1.104,1.658,2.434,1.658,3.983c0,1.603-0.541,2.953-1.622,4.059
			c-1.083,1.105-2.424,1.658-4.021,1.658c-1.601,0-2.953-0.553-4.059-1.658C80.653,8.596,80.102,7.245,80.102,5.644z"/>
		<path class="cambio-color-2" fill="#4B4A4C" d="M108.208,51.881c-2.247-0.047-4.71-0.563-7.386-1.542c-2.68-0.979-4.83-2.163-6.455-3.55l5.379-6.956
			c2.582,2.393,5.33,3.587,8.247,3.587h0.215c1.243,0,2.317-0.214,3.228-0.645c1.242-0.571,1.864-1.385,1.864-2.433v-0.287
			c-0.144-1.097-0.886-1.883-2.224-2.361c-0.432-0.094-1.555-0.309-3.371-0.643c-2.15-0.43-3.969-0.953-5.449-1.574
			c-4.352-1.858-6.525-5.127-6.525-9.8c0-4.482,2.225-7.845,6.67-10.087c1.959-1.001,4.088-1.524,6.382-1.573
			c2.295-0.047,4.757,0.358,7.387,1.219c3.013,1.004,5.14,2.32,6.383,3.944l-6.454,5.808c-1.005-1.003-1.925-1.672-2.762-2.007
			c-0.837-0.334-1.732-0.502-2.689-0.502c-3.06,0-4.588,1.004-4.588,3.011v0.146c0,0.622,0.43,1.158,1.291,1.612
			c0.859,0.455,3.25,1.041,7.17,1.758c6.023,1.146,9.037,4.828,9.037,11.043v0.215c0,2.295-0.767,4.373-2.296,6.238
			C118.199,50.232,113.85,52.026,108.208,51.881z"/>
	</g>
</g>
</svg>